<?xml version="1.0" encoding="UTF-8"?>
<!DOCTYPE svg PUBLIC "-//W3C//DTD SVG 1.1//EN" "http://www.w3.org/Graphics/SVG/1.1/DTD/svg11.dtd">
<!-- Creator: CorelDRAW X7 -->
<svg xmlns="http://www.w3.org/2000/svg" xml:space="preserve" width="2480px" height="3508px" version="1.1" style="shape-rendering:geometricPrecision; text-rendering:geometricPrecision; image-rendering:optimizeQuality; fill-rule:evenodd; clip-rule:evenodd"
viewBox="0 0 2480 3507"
 xmlns:xlink="http://www.w3.org/1999/xlink"
 data-name="Layer 1">
 <defs>
  <style type="text/css">
   <![CDATA[
    .fil0 {fill:white}
   ]]>
  </style>
 </defs>
 <g id="Слой_x0020_1">
  <metadata id="CorelCorpID_0Corel-Layer"/>
  <path class="fil0" d="M1004 1965c4,0 8,-1 12,-2l0 32c-8,3 -17,5 -25,5 -1,0 -1,0 -1,0 -1,0 -3,0 -4,0 -14,0 -28,-9 -34,-23 -19,17 -43,26 -68,26 -1,0 -2,0 -2,0 -35,0 -66,-20 -66,-61 0,-52 45,-68 84,-68 16,0 32,3 48,6l0 -7c0,-25 -17,-43 -49,-43 -23,0 -46,6 -67,16l0 -41c23,-9 47,-13 71,-14 54,0 86,27 86,88l0 72c0,1 0,1 0,2 0,7 6,13 12,13 1,0 2,0 3,-1l0 0zm-160 -41c2,17 15,30 31,30 1,0 3,0 4,0 1,0 1,0 2,0 19,0 38,-9 53,-23l0 -21c-14,-3 -27,-5 -41,-5 -9,0 -34,8 -34,33l-15 -14z"/>
  <path class="fil0" d="M1137 1791c1,0 2,0 3,0 19,0 38,5 55,15l0 41c-15,-11 -33,-16 -51,-16 0,0 -1,0 -1,0 -1,-1 -3,-1 -5,-1 -34,0 -62,30 -62,67 0,36 28,66 62,66 2,0 4,0 5,0 19,0 38,-5 55,-15l0 41c-19,9 -39,14 -59,14 -1,0 -2,0 -3,0 -2,0 -5,0 -7,0 -52,0 -94,-46 -94,-102 0,-1 0,-2 0,-3 0,-1 0,-2 0,-3 0,-58 43,-104 97,-104 2,0 3,0 5,0l0 0z"/>
  <path class="fil0" d="M1411 1965c4,0 9,-1 13,-2l0 32c-9,3 -17,5 -26,5 0,0 -1,0 -1,0 -1,0 -2,0 -4,0 -14,0 -27,-9 -34,-23 -19,17 -43,26 -68,26 -1,0 -1,0 -2,0 -34,0 -66,-20 -66,-61 0,-52 45,-68 84,-68 16,0 33,3 49,6l0 -7c0,-25 -18,-43 -50,-43 -23,0 -46,6 -67,16l0 -41c23,-9 47,-13 72,-14 53,0 85,27 85,88l0 72c0,1 0,1 0,2 0,7 6,13 13,13 0,0 1,0 2,-1l0 0zm-160 -41c2,17 15,30 31,30 1,0 3,0 5,0 0,0 0,0 1,0 20,0 39,-9 53,-23l0 -21c-14,-3 -27,-5 -41,-5 -9,0 -34,8 -34,33l-15 -14z"/>
  <path class="fil0" d="M1643 1704l0 293 -37 0 0 -32c-17,24 -43,38 -70,38 -1,0 -2,0 -2,0 -52,-4 -93,-50 -93,-106 0,-56 41,-102 93,-106 1,0 2,0 3,0 24,0 48,11 64,31l0 -118 43 0 -1 0zm-102 126c-34,0 -62,30 -62,67 0,37 28,66 62,66 0,0 1,0 1,0 26,0 49,-16 59,-42l0 -49c-10,-25 -34,-42 -60,-42l0 0z"/>
  <path class="fil0" d="M1779 1791c74,0 100,64 88,123l-141 0c5,36 38,51 72,51 0,0 0,0 0,0 21,0 41,-5 59,-15l0 39c-20,9 -41,14 -63,14 -1,0 -3,0 -4,0 -58,0 -107,-36 -107,-106 0,-2 0,-4 0,-5 0,-56 42,-101 94,-101 0,0 1,0 2,0l0 0zm-94 143c-2,0 -3,0 -4,0 -28,0 -50,23 -51,52l104 0c7,2 15,4 23,4 43,0 77,-37 77,-83 0,-36 -21,-68 -53,-79l-96 106z"/>
  <path class="fil0" d="M1910 1997l0 -201 37 0 0 25c16,-19 38,-30 62,-30 2,0 3,0 4,0 23,0 43,12 55,32 17,-20 40,-31 65,-32 1,0 2,0 3,0 38,0 69,33 69,74 0,2 0,4 0,7l0 125 -43 0 0 -124c0,-1 0,-3 0,-4 0,-21 -16,-38 -36,-38 0,0 -1,0 -1,0 -19,1 -36,11 -47,27 0,5 0,9 0,14l0 125 -43 0 0 -124c0,-1 0,-3 0,-4 0,-21 -16,-38 -35,-38 -1,0 -1,0 -2,0 -20,2 -38,13 -50,31l0 136 -42 0 4 -1z"/>
  <path class="fil0" d="M2389 1796l43 0 -88 228c-20,53 -47,69 -75,69 -9,0 -17,-1 -25,-3l0 -38c6,2 12,3 19,3 0,0 0,0 0,0 20,0 36,-16 47,-46l3 -10 -89 -203 46 0 64 152 55 -152z"/>
  <path class="fil0" d="M871 1353l0 114c16,-17 38,-27 61,-27 2,0 3,0 4,0 41,0 74,35 74,78 0,1 0,3 -1,4l0 124 -42 0 0 -118c0,-2 0,-4 0,-5 0,-24 -18,-44 -41,-44 -1,0 -1,0 -2,0 -22,2 -41,14 -53,34l0 133 -42 0 0 -293 42 0z"/>
  <path class="fil0" d="M1124 1373l0 72 68 0 0 39 -68 0 0 92c0,26 11,35 35,35 13,0 26,-3 38,-8l0 38c-16,6 -32,9 -49,9 0,0 -1,0 -1,0 -2,0 -5,1 -7,1 -32,0 -58,-28 -58,-62 0,-2 0,-3 1,-5l0 -101 -35 0 0 -39 34 0 0 -60 42 -11z"/>
  <path class="fil0" d="M1245 1646l0 -201 37 0 0 25c16,-19 39,-31 63,-31 1,0 3,0 4,0 22,0 43,12 54,32 17,-19 41,-31 66,-32 1,0 2,0 3,0 38,0 69,33 69,74 0,2 -1,5 -1,7l0 126 -43 0 0 -125c0,-1 1,-2 1,-4 0,-21 -17,-38 -36,-38 -1,0 -1,0 -2,0 -18,1 -35,11 -46,27 0,5 0,9 0,14l0 126 -43 0 0 -125c0,-1 0,-2 0,-4 0,-21 -16,-38 -36,-38 0,0 -1,0 -1,0 -20,2 -39,13 -50,31l0 136 -43 0 4 0z"/>
  <rect class="fil0" x="1601" y="1352" width="41.7948" height="293.007"/>
  <path class="fil0" d="M331 1318l-4 0 -327 37 0 643 327 208 328 -208 0 -643 -324 -37zm281 653l-285 182 -284 -182 0 -263 283 180 0 33 -194 -124 0 32 195 125 0 34 -195 -125 0 32 195 126 0 0 197 -127 0 -31 0 0 0 -104 88 -56 0 267 0 1zm0 -302l-78 49 0 0 -36 23 -172 -109 0 31 147 94 -1 0 -3 2 -22 13 -121 -77 0 32 96 60 -23 17 0 0 -72 -46 0 31 47 30 -48 31 -282 -179 282 -182 0 0 286 180zm0 -32l-286 -181 0 0 -283 181 0 -241 285 -32 284 32 0 241 0 0z"/>
 </g>
</svg>
